<svg xmlns="http://www.w3.org/2000/svg" xmlns:xlink="http://www.w3.org/1999/xlink" width="1000" zoomAndPan="magnify" viewBox="0 0 750 187.499995" height="250" preserveAspectRatio="xMidYMid meet" version="1.0"><defs><g/><clipPath id="adf992ff63"><path d="M 8.011719 17.566406 L 137.6875 17.566406 L 137.6875 169.097656 L 8.011719 169.097656 Z M 8.011719 17.566406 " clip-rule="nonzero"/></clipPath></defs><g clip-path="url(#adf992ff63)"><path fill="#ffffff" d="M 104.460938 68.265625 L 95.839844 68.265625 L 100.964844 62.339844 C 102.140625 62.621094 103.355469 62.769531 104.628906 62.769531 C 113.191406 62.769531 120.183594 55.816406 120.238281 47.253906 C 120.292969 38.632812 113.320312 31.585938 104.628906 31.550781 C 96.066406 31.550781 89.054688 38.503906 89.015625 47.066406 C 89 49.273438 89.445312 51.460938 90.324219 53.460938 L 77.726562 68.265625 L 72.210938 68.265625 L 56.46875 48.804688 C 58.449219 45.609375 59.535156 41.90625 59.570312 38.109375 C 59.609375 32.652344 57.515625 27.511719 53.683594 23.640625 C 49.851562 19.753906 44.746094 17.601562 39.15625 17.566406 C 27.976562 17.566406 18.816406 26.667969 18.742188 37.867188 C 18.703125 43.328125 20.796875 48.46875 24.628906 52.355469 C 28.464844 56.246094 33.585938 58.394531 39.15625 58.433594 C 40.613281 58.433594 42.074219 58.285156 43.476562 57.984375 L 51.757812 68.304688 L 41.195312 68.304688 C 26.257812 68.265625 8.046875 72.773438 8.046875 103.636719 L 8.046875 136.261719 C 8.046875 154.507812 22.96875 169.425781 41.214844 169.425781 L 104.460938 169.425781 C 122.6875 169.425781 137.625 154.507812 137.625 136.261719 L 137.625 103.636719 C 137.625 76.210938 119.398438 68.265625 104.460938 68.265625 Z M 107.789062 150.265625 L 37.886719 150.265625 C 32.746094 150.265625 28.40625 145.925781 28.40625 140.785156 L 28.445312 103.636719 L 28.445312 97.972656 C 28.632812 92.980469 32.875 88.832031 37.886719 88.832031 L 107.789062 88.832031 C 112.929688 88.832031 117.265625 93.167969 117.265625 98.308594 L 117.226562 135.476562 L 117.265625 135.476562 L 117.265625 140.785156 C 117.265625 145.925781 112.929688 150.265625 107.789062 150.265625 Z M 107.789062 150.265625 " fill-opacity="1" fill-rule="nonzero"/></g><path fill="#ffffff" d="M 58.730469 130.539062 C 58.695312 124.519531 58.65625 114.648438 58.617188 108.628906 C 58.582031 102.609375 63.085938 100.125 68.246094 103.097656 C 73.386719 106.085938 81.988281 110.964844 87.128906 113.957031 C 92.269531 116.949219 92.382812 121.867188 87.261719 124.914062 C 82.136719 127.960938 73.480469 132.933594 68.359375 135.960938 C 63.253906 139.007812 58.75 136.558594 58.730469 130.539062 Z M 58.730469 130.539062 " fill-opacity="1" fill-rule="nonzero"/><g fill="#ffffff" fill-opacity="1"><g transform="translate(157.759445, 127.497764)"><g><path d="M 42.625 1.34375 C 35.75 1.34375 29.367188 -0.203125 23.484375 -3.296875 C 17.597656 -6.398438 12.898438 -10.804688 9.390625 -16.515625 C 5.878906 -22.222656 4.125 -28.757812 4.125 -36.125 C 4.125 -43.488281 5.878906 -50.023438 9.390625 -55.734375 C 12.898438 -61.453125 17.597656 -65.859375 23.484375 -68.953125 C 29.367188 -72.046875 35.75 -73.59375 42.625 -73.59375 C 48.539062 -73.59375 54.046875 -72.457031 59.140625 -70.1875 C 64.234375 -67.914062 68.585938 -64.628906 72.203125 -60.328125 C 75.816406 -56.023438 78.34375 -50.984375 79.78125 -45.203125 L 61 -45.203125 C 59.488281 -48.785156 57.128906 -51.660156 53.921875 -53.828125 C 50.722656 -55.992188 46.992188 -57.078125 42.734375 -57.078125 C 38.953125 -57.078125 35.507812 -56.164062 32.40625 -54.34375 C 29.3125 -52.519531 26.882812 -50.023438 25.125 -46.859375 C 23.375 -43.691406 22.5 -40.113281 22.5 -36.125 C 22.5 -32.132812 23.375 -28.554688 25.125 -25.390625 C 26.882812 -22.222656 29.3125 -19.726562 32.40625 -17.90625 C 35.507812 -16.082031 38.953125 -15.171875 42.734375 -15.171875 C 47.140625 -15.171875 50.921875 -16.253906 54.078125 -18.421875 C 57.242188 -20.585938 59.585938 -23.492188 61.109375 -27.140625 L 79.78125 -27.140625 C 78.34375 -21.296875 75.832031 -16.222656 72.25 -11.921875 C 68.675781 -7.617188 64.34375 -4.332031 59.25 -2.0625 C 54.15625 0.207031 48.613281 1.34375 42.625 1.34375 Z M 42.625 1.34375 "/></g></g></g><g fill="#ffffff" fill-opacity="1"><g transform="translate(237.031156, 127.497764)"><g><path d="M 46.34375 -53.671875 L 62.234375 -53.671875 L 62.234375 0 L 46.34375 0 L 46.34375 -5.265625 C 42.351562 -0.859375 36.742188 1.34375 29.515625 1.34375 C 25.117188 1.34375 20.890625 0.191406 16.828125 -2.109375 C 12.765625 -4.421875 9.457031 -7.722656 6.90625 -12.015625 C 4.363281 -16.316406 3.09375 -21.257812 3.09375 -26.84375 C 3.09375 -32.414062 4.363281 -37.347656 6.90625 -41.640625 C 9.457031 -45.941406 12.765625 -49.242188 16.828125 -51.546875 C 20.890625 -53.859375 25.117188 -55.015625 29.515625 -55.015625 C 36.671875 -55.015625 42.28125 -52.8125 46.34375 -48.40625 Z M 33.03125 -13.9375 C 36.75 -13.9375 39.828125 -15.15625 42.265625 -17.59375 C 44.710938 -20.039062 45.9375 -23.125 45.9375 -26.84375 C 45.9375 -30.550781 44.710938 -33.625 42.265625 -36.0625 C 39.828125 -38.507812 36.75 -39.734375 33.03125 -39.734375 C 29.3125 -39.734375 26.226562 -38.507812 23.78125 -36.0625 C 21.34375 -33.625 20.125 -30.550781 20.125 -26.84375 C 20.125 -23.125 21.34375 -20.039062 23.78125 -17.59375 C 26.226562 -15.15625 29.3125 -13.9375 33.03125 -13.9375 Z M 33.03125 -13.9375 "/></g></g></g><g fill="#ffffff" fill-opacity="1"><g transform="translate(301.852114, 127.497764)"><g><path d="M 39.84375 -55.015625 C 44.25 -55.015625 48.476562 -53.84375 52.53125 -51.5 C 56.59375 -49.164062 59.894531 -45.863281 62.4375 -41.59375 C 64.988281 -37.332031 66.265625 -32.414062 66.265625 -26.84375 C 66.265625 -21.257812 64.988281 -16.316406 62.4375 -12.015625 C 59.894531 -7.722656 56.59375 -4.421875 52.53125 -2.109375 C 48.476562 0.191406 44.25 1.34375 39.84375 1.34375 C 32.613281 1.34375 27.003906 -0.859375 23.015625 -5.265625 L 23.015625 0 L 7.015625 0 L 7.015625 -74.3125 L 24.25 -74.3125 L 24.25 -49.546875 C 28.101562 -53.191406 33.300781 -55.015625 39.84375 -55.015625 Z M 36.328125 -13.9375 C 40.046875 -13.9375 43.125 -15.15625 45.5625 -17.59375 C 48.007812 -20.039062 49.234375 -23.125 49.234375 -26.84375 C 49.234375 -30.550781 48.007812 -33.625 45.5625 -36.0625 C 43.125 -38.507812 40.046875 -39.734375 36.328125 -39.734375 C 32.617188 -39.734375 29.539062 -38.507812 27.09375 -36.0625 C 24.65625 -33.625 23.4375 -30.550781 23.4375 -26.84375 C 23.4375 -23.125 24.65625 -20.039062 27.09375 -17.59375 C 29.539062 -15.15625 32.617188 -13.9375 36.328125 -13.9375 Z M 36.328125 -13.9375 "/></g></g></g><g fill="#ffffff" fill-opacity="1"><g transform="translate(367.189209, 127.497764)"><g><path d="M 24.25 0 L 7.015625 0 L 7.015625 -74.3125 L 24.25 -74.3125 Z M 24.25 0 "/></g></g></g><g fill="#ffffff" fill-opacity="1"><g transform="translate(394.541487, 127.497764)"><g><path d="M 31.796875 -55.015625 C 36.878906 -55.015625 41.601562 -53.84375 45.96875 -51.5 C 50.34375 -49.164062 53.851562 -45.878906 56.5 -41.640625 C 59.15625 -37.410156 60.484375 -32.613281 60.484375 -27.25 C 60.484375 -25.664062 60.3125 -23.84375 59.96875 -21.78125 L 20.125 -21.78125 C 20.8125 -18.539062 22.1875 -16.023438 24.25 -14.234375 C 26.320312 -12.453125 28.90625 -11.5625 32 -11.5625 C 34.476562 -11.5625 36.554688 -12.007812 38.234375 -12.90625 C 39.921875 -13.800781 41.351562 -15.140625 42.53125 -16.921875 L 58.9375 -16.921875 C 56.9375 -11.492188 53.597656 -7.09375 48.921875 -3.71875 C 44.242188 -0.34375 38.535156 1.34375 31.796875 1.34375 C 26.628906 1.34375 21.84375 0.175781 17.4375 -2.15625 C 13.039062 -4.5 9.515625 -7.800781 6.859375 -12.0625 C 4.210938 -16.332031 2.890625 -21.257812 2.890625 -26.84375 C 2.890625 -32.414062 4.210938 -37.332031 6.859375 -41.59375 C 9.515625 -45.863281 13.039062 -49.164062 17.4375 -51.5 C 21.84375 -53.84375 26.628906 -55.015625 31.796875 -55.015625 Z M 31.796875 -42.015625 C 28.898438 -42.015625 26.4375 -41.203125 24.40625 -39.578125 C 22.375 -37.960938 20.984375 -35.609375 20.234375 -32.515625 L 43.5625 -32.515625 C 43.007812 -35.335938 41.734375 -37.625 39.734375 -39.375 C 37.742188 -41.132812 35.097656 -42.015625 31.796875 -42.015625 Z M 31.796875 -42.015625 "/></g></g></g><g fill="#ffffff" fill-opacity="1"><g transform="translate(461.123204, 129.364183)"><g><path d="M 51.859375 -28.3125 L 62.234375 -28.3125 L 59.4375 -13.890625 L 49.15625 -13.890625 L 46.46875 0 L 29.96875 0 L 32.5625 -13.890625 L -1.140625 -13.890625 L 1.25 -26.453125 L 44.5 -72.609375 L 60.359375 -72.609375 Z M 39.3125 -47.8125 L 21.15625 -28.3125 L 35.46875 -28.3125 Z M 39.3125 -47.8125 "/></g></g></g><g fill="#ffffff" fill-opacity="1"><g transform="translate(520.654542, 129.364183)"><g><path d="M 48.546875 0 L 3.3125 0 L 17.21875 -72.609375 L 35.375 -72.609375 L 24.6875 -16.390625 L 51.75 -16.390625 Z M 48.546875 0 "/></g></g></g><g fill="#ffffff" fill-opacity="1"><g transform="translate(572.303635, 129.364183)"><g><path d="M 34.328125 -55.28125 C 39.515625 -55.28125 44.113281 -54.15625 48.125 -51.90625 C 52.132812 -49.664062 55.242188 -46.609375 57.453125 -42.734375 C 59.671875 -38.859375 60.78125 -34.601562 60.78125 -29.96875 C 60.78125 -27.132812 60.398438 -24.441406 59.640625 -21.890625 L 19.5 -21.890625 C 19.914062 -18.566406 21.09375 -16.019531 23.03125 -14.25 C 24.96875 -12.488281 27.523438 -11.609375 30.703125 -11.609375 C 33.117188 -11.609375 35.257812 -12.128906 37.125 -13.171875 C 39 -14.210938 40.347656 -15.492188 41.171875 -17.015625 L 58.1875 -17.015625 C 55.976562 -11.753906 52.363281 -7.378906 47.34375 -3.890625 C 42.332031 -0.398438 36.367188 1.34375 29.453125 1.34375 C 24.410156 1.34375 19.863281 0.273438 15.8125 -1.859375 C 11.769531 -4.003906 8.585938 -6.992188 6.265625 -10.828125 C 3.953125 -14.671875 2.796875 -19.015625 2.796875 -23.859375 C 2.796875 -29.316406 4.144531 -34.445312 6.84375 -39.25 C 9.539062 -44.0625 13.289062 -47.9375 18.09375 -50.875 C 22.90625 -53.8125 28.316406 -55.28125 34.328125 -55.28125 Z M 33.703125 -42.21875 C 30.660156 -42.21875 28.050781 -41.351562 25.875 -39.625 C 23.695312 -37.894531 22.054688 -35.578125 20.953125 -32.671875 L 44.59375 -32.671875 C 44.382812 -35.503906 43.347656 -37.800781 41.484375 -39.5625 C 39.617188 -41.332031 37.023438 -42.21875 33.703125 -42.21875 Z M 33.703125 -42.21875 "/></g></g></g><g fill="#ffffff" fill-opacity="1"><g transform="translate(632.042407, 129.364183)"><g><path d="M 26.546875 1.34375 C 21.773438 1.34375 17.539062 0.582031 13.84375 -0.9375 C 10.144531 -2.457031 7.257812 -4.632812 5.1875 -7.46875 C 3.113281 -10.300781 2.078125 -13.585938 2.078125 -17.328125 L 18.25 -17.328125 C 18.320312 -15.734375 19.097656 -14.363281 20.578125 -13.21875 C 22.066406 -12.082031 24.023438 -11.515625 26.453125 -11.515625 C 28.796875 -11.515625 30.570312 -11.894531 31.78125 -12.65625 C 33 -13.414062 33.609375 -14.519531 33.609375 -15.96875 C 33.609375 -17.28125 32.898438 -18.300781 31.484375 -19.03125 C 30.066406 -19.757812 27.734375 -20.640625 24.484375 -21.671875 C 20.878906 -22.785156 17.9375 -23.875 15.65625 -24.9375 C 13.375 -26.007812 11.382812 -27.566406 9.6875 -29.609375 C 8 -31.648438 7.15625 -34.332031 7.15625 -37.65625 C 7.15625 -43.039062 9.242188 -47.320312 13.421875 -50.5 C 17.609375 -53.6875 23.054688 -55.28125 29.765625 -55.28125 C 33.910156 -55.28125 37.726562 -54.519531 41.21875 -53 C 44.71875 -51.476562 47.46875 -49.351562 49.46875 -46.625 C 51.476562 -43.894531 52.484375 -40.765625 52.484375 -37.234375 L 36.40625 -37.234375 C 36.40625 -38.753906 35.800781 -40.015625 34.59375 -41.015625 C 33.382812 -42.023438 31.773438 -42.53125 29.765625 -42.53125 C 25.753906 -42.53125 23.75 -41.316406 23.75 -38.890625 C 23.75 -37.648438 24.441406 -36.664062 25.828125 -35.9375 C 27.210938 -35.207031 29.492188 -34.328125 32.671875 -33.296875 C 36.203125 -32.253906 39.140625 -31.195312 41.484375 -30.125 C 43.835938 -29.050781 45.878906 -27.460938 47.609375 -25.359375 C 49.335938 -23.253906 50.203125 -20.539062 50.203125 -17.21875 C 50.203125 -11.40625 48.039062 -6.859375 43.71875 -3.578125 C 39.394531 -0.296875 33.671875 1.34375 26.546875 1.34375 Z M 26.546875 1.34375 "/></g></g></g><g fill="#ffffff" fill-opacity="1"><g transform="translate(684.936066, 129.364183)"><g><path d="M 26.546875 1.34375 C 21.773438 1.34375 17.539062 0.582031 13.84375 -0.9375 C 10.144531 -2.457031 7.257812 -4.632812 5.1875 -7.46875 C 3.113281 -10.300781 2.078125 -13.585938 2.078125 -17.328125 L 18.25 -17.328125 C 18.320312 -15.734375 19.097656 -14.363281 20.578125 -13.21875 C 22.066406 -12.082031 24.023438 -11.515625 26.453125 -11.515625 C 28.796875 -11.515625 30.570312 -11.894531 31.78125 -12.65625 C 33 -13.414062 33.609375 -14.519531 33.609375 -15.96875 C 33.609375 -17.28125 32.898438 -18.300781 31.484375 -19.03125 C 30.066406 -19.757812 27.734375 -20.640625 24.484375 -21.671875 C 20.878906 -22.785156 17.9375 -23.875 15.65625 -24.9375 C 13.375 -26.007812 11.382812 -27.566406 9.6875 -29.609375 C 8 -31.648438 7.15625 -34.332031 7.15625 -37.65625 C 7.15625 -43.039062 9.242188 -47.320312 13.421875 -50.5 C 17.609375 -53.6875 23.054688 -55.28125 29.765625 -55.28125 C 33.910156 -55.28125 37.726562 -54.519531 41.21875 -53 C 44.71875 -51.476562 47.46875 -49.351562 49.46875 -46.625 C 51.476562 -43.894531 52.484375 -40.765625 52.484375 -37.234375 L 36.40625 -37.234375 C 36.40625 -38.753906 35.800781 -40.015625 34.59375 -41.015625 C 33.382812 -42.023438 31.773438 -42.53125 29.765625 -42.53125 C 25.753906 -42.53125 23.75 -41.316406 23.75 -38.890625 C 23.75 -37.648438 24.441406 -36.664062 25.828125 -35.9375 C 27.210938 -35.207031 29.492188 -34.328125 32.671875 -33.296875 C 36.203125 -32.253906 39.140625 -31.195312 41.484375 -30.125 C 43.835938 -29.050781 45.878906 -27.460938 47.609375 -25.359375 C 49.335938 -23.253906 50.203125 -20.539062 50.203125 -17.21875 C 50.203125 -11.40625 48.039062 -6.859375 43.71875 -3.578125 C 39.394531 -0.296875 33.671875 1.34375 26.546875 1.34375 Z M 26.546875 1.34375 "/></g></g></g></svg>