<svg xmlns="http://www.w3.org/2000/svg" xmlns:xlink="http://www.w3.org/1999/xlink" width="1000" zoomAndPan="magnify" viewBox="0 0 750 187.499995" height="250" preserveAspectRatio="xMidYMid meet" version="1.0"><defs><g/><clipPath id="1c4e9d538d"><path d="M 10.347656 15.535156 L 143.492188 15.535156 L 143.492188 171.117188 L 10.347656 171.117188 Z M 10.347656 15.535156 " clip-rule="nonzero"/></clipPath><clipPath id="4fe7008a81"><path d="M 391 8 L 749 8 L 749 187 L 391 187 Z M 391 8 " clip-rule="nonzero"/></clipPath></defs><g clip-path="url(#1c4e9d538d)"><path fill="#21528c" d="M 109.378906 67.589844 L 100.527344 67.589844 L 105.789062 61.507812 C 106.996094 61.792969 108.246094 61.949219 109.550781 61.949219 C 118.339844 61.949219 125.519531 54.808594 125.578125 46.015625 C 125.636719 37.167969 118.476562 29.929688 109.550781 29.890625 C 100.757812 29.890625 93.558594 37.03125 93.523438 45.824219 C 93.503906 48.089844 93.964844 50.335938 94.867188 52.390625 L 81.929688 67.589844 L 76.265625 67.589844 L 60.101562 47.609375 C 62.136719 44.328125 63.25 40.527344 63.289062 36.628906 C 63.328125 31.023438 61.175781 25.746094 57.242188 21.773438 C 53.308594 17.78125 48.066406 15.570312 42.328125 15.535156 C 30.847656 15.535156 21.441406 24.882812 21.367188 36.378906 C 21.328125 41.984375 23.476562 47.261719 27.414062 51.257812 C 31.347656 55.25 36.609375 57.457031 42.328125 57.496094 C 43.824219 57.496094 45.320312 57.339844 46.761719 57.035156 L 55.265625 67.628906 L 44.421875 67.628906 C 29.082031 67.589844 10.386719 72.21875 10.386719 103.910156 L 10.386719 137.40625 C 10.386719 156.140625 25.703125 171.457031 44.4375 171.457031 L 109.378906 171.457031 C 128.09375 171.457031 143.429688 156.140625 143.429688 137.40625 L 143.429688 103.910156 C 143.429688 75.75 124.714844 67.589844 109.378906 67.589844 Z M 112.792969 151.78125 L 41.023438 151.78125 C 35.742188 151.78125 31.289062 147.328125 31.289062 142.050781 L 31.328125 103.910156 L 31.328125 98.09375 C 31.519531 92.96875 35.878906 88.707031 41.023438 88.707031 L 112.792969 88.707031 C 118.074219 88.707031 122.527344 93.160156 122.527344 98.4375 L 122.488281 136.597656 L 122.527344 136.597656 L 122.527344 142.050781 C 122.527344 147.328125 118.074219 151.78125 112.792969 151.78125 Z M 112.792969 151.78125 " fill-opacity="1" fill-rule="nonzero"/></g><path fill="#21528c" d="M 62.425781 131.53125 C 62.386719 125.351562 62.347656 115.214844 62.308594 109.035156 C 62.273438 102.851562 66.898438 100.300781 72.195312 103.351562 C 77.472656 106.421875 86.304688 111.433594 91.582031 114.503906 C 96.863281 117.578125 96.976562 122.625 91.71875 125.753906 C 86.457031 128.882812 77.570312 133.988281 72.3125 137.097656 C 67.070312 140.226562 62.445312 137.710938 62.425781 131.53125 Z M 62.425781 131.53125 " fill-opacity="1" fill-rule="nonzero"/><g fill="#21528c" fill-opacity="1"><g transform="translate(164.102997, 131.827249)"><g><path d="M 43.765625 1.375 C 36.703125 1.375 30.148438 -0.210938 24.109375 -3.390625 C 18.066406 -6.566406 13.242188 -11.085938 9.640625 -16.953125 C 6.035156 -22.816406 4.234375 -29.53125 4.234375 -37.09375 C 4.234375 -44.65625 6.035156 -51.367188 9.640625 -57.234375 C 13.242188 -63.097656 18.066406 -67.617188 24.109375 -70.796875 C 30.148438 -73.972656 36.703125 -75.5625 43.765625 -75.5625 C 49.847656 -75.5625 55.503906 -74.394531 60.734375 -72.0625 C 65.960938 -69.738281 70.429688 -66.367188 74.140625 -61.953125 C 77.847656 -57.535156 80.441406 -52.359375 81.921875 -46.421875 L 62.640625 -46.421875 C 61.085938 -50.097656 58.664062 -53.046875 55.375 -55.265625 C 52.09375 -57.492188 48.257812 -58.609375 43.875 -58.609375 C 39.988281 -58.609375 36.457031 -57.671875 33.28125 -55.796875 C 30.101562 -53.929688 27.613281 -51.367188 25.8125 -48.109375 C 24.007812 -44.859375 23.109375 -41.1875 23.109375 -37.09375 C 23.109375 -33 24.007812 -29.328125 25.8125 -26.078125 C 27.613281 -22.828125 30.101562 -20.265625 33.28125 -18.390625 C 36.457031 -16.515625 39.988281 -15.578125 43.875 -15.578125 C 48.394531 -15.578125 52.28125 -16.6875 55.53125 -18.90625 C 58.78125 -21.132812 61.1875 -24.125 62.75 -27.875 L 81.921875 -27.875 C 80.441406 -21.863281 77.863281 -16.648438 74.1875 -12.234375 C 70.507812 -7.816406 66.054688 -4.441406 60.828125 -2.109375 C 55.609375 0.210938 49.921875 1.375 43.765625 1.375 Z M 43.765625 1.375 "/></g></g></g><g fill="#21528c" fill-opacity="1"><g transform="translate(245.495343, 131.827249)"><g><path d="M 47.59375 -55.109375 L 63.90625 -55.109375 L 63.90625 0 L 47.59375 0 L 47.59375 -5.40625 C 43.488281 -0.882812 37.726562 1.375 30.3125 1.375 C 25.789062 1.375 21.441406 0.191406 17.265625 -2.171875 C 13.097656 -4.535156 9.707031 -7.925781 7.09375 -12.34375 C 4.476562 -16.757812 3.171875 -21.832031 3.171875 -27.5625 C 3.171875 -33.28125 4.476562 -38.347656 7.09375 -42.765625 C 9.707031 -47.179688 13.097656 -50.570312 17.265625 -52.9375 C 21.441406 -55.300781 25.789062 -56.484375 30.3125 -56.484375 C 37.65625 -56.484375 43.414062 -54.222656 47.59375 -49.703125 Z M 33.921875 -14.3125 C 37.734375 -14.3125 40.890625 -15.5625 43.390625 -18.0625 C 45.898438 -20.570312 47.15625 -23.738281 47.15625 -27.5625 C 47.15625 -31.375 45.898438 -34.53125 43.390625 -37.03125 C 40.890625 -39.539062 37.734375 -40.796875 33.921875 -40.796875 C 30.097656 -40.796875 26.929688 -39.539062 24.421875 -37.03125 C 21.921875 -34.53125 20.671875 -31.375 20.671875 -27.5625 C 20.671875 -23.738281 21.921875 -20.570312 24.421875 -18.0625 C 26.929688 -15.5625 30.097656 -14.3125 33.921875 -14.3125 Z M 33.921875 -14.3125 "/></g></g></g><g fill="#21528c" fill-opacity="1"><g transform="translate(312.050358, 131.827249)"><g><path d="M 40.90625 -56.484375 C 45.425781 -56.484375 49.769531 -55.28125 53.9375 -52.875 C 58.113281 -50.476562 61.507812 -47.085938 64.125 -42.703125 C 66.738281 -38.328125 68.046875 -33.28125 68.046875 -27.5625 C 68.046875 -21.832031 66.738281 -16.757812 64.125 -12.34375 C 61.507812 -7.925781 58.113281 -4.535156 53.9375 -2.171875 C 49.769531 0.191406 45.425781 1.375 40.90625 1.375 C 33.488281 1.375 27.734375 -0.882812 23.640625 -5.40625 L 23.640625 0 L 7.203125 0 L 7.203125 -76.3125 L 24.90625 -76.3125 L 24.90625 -50.875 C 28.863281 -54.613281 34.195312 -56.484375 40.90625 -56.484375 Z M 37.3125 -14.3125 C 41.125 -14.3125 44.28125 -15.5625 46.78125 -18.0625 C 49.289062 -20.570312 50.546875 -23.738281 50.546875 -27.5625 C 50.546875 -31.375 49.289062 -34.53125 46.78125 -37.03125 C 44.28125 -39.539062 41.125 -40.796875 37.3125 -40.796875 C 33.488281 -40.796875 30.320312 -39.539062 27.8125 -37.03125 C 25.3125 -34.53125 24.0625 -31.375 24.0625 -27.5625 C 24.0625 -23.738281 25.3125 -20.570312 27.8125 -18.0625 C 30.320312 -15.5625 33.488281 -14.3125 37.3125 -14.3125 Z M 37.3125 -14.3125 "/></g></g></g><g fill="#21528c" fill-opacity="1"><g transform="translate(379.135318, 131.827249)"><g><path d="M 24.90625 0 L 7.203125 0 L 7.203125 -76.3125 L 24.90625 -76.3125 Z M 24.90625 0 "/></g></g></g><g fill="#21528c" fill-opacity="1"><g transform="translate(407.219309, 131.827249)"><g><path d="M 32.640625 -56.484375 C 37.867188 -56.484375 42.726562 -55.28125 47.21875 -52.875 C 51.707031 -50.476562 55.3125 -47.109375 58.03125 -42.765625 C 60.75 -38.421875 62.109375 -33.492188 62.109375 -27.984375 C 62.109375 -26.359375 61.929688 -24.484375 61.578125 -22.359375 L 20.671875 -22.359375 C 21.378906 -19.035156 22.789062 -16.457031 24.90625 -14.625 C 27.019531 -12.789062 29.671875 -11.875 32.859375 -11.875 C 35.398438 -11.875 37.535156 -12.332031 39.265625 -13.25 C 40.992188 -14.164062 42.460938 -15.539062 43.671875 -17.375 L 60.515625 -17.375 C 58.460938 -11.800781 55.035156 -7.28125 50.234375 -3.8125 C 45.429688 -0.351562 39.566406 1.375 32.640625 1.375 C 27.335938 1.375 22.425781 0.175781 17.90625 -2.21875 C 13.382812 -4.625 9.765625 -8.015625 7.046875 -12.390625 C 4.328125 -16.773438 2.96875 -21.832031 2.96875 -27.5625 C 2.96875 -33.28125 4.328125 -38.328125 7.046875 -42.703125 C 9.765625 -47.085938 13.382812 -50.476562 17.90625 -52.875 C 22.425781 -55.28125 27.335938 -56.484375 32.640625 -56.484375 Z M 32.640625 -43.140625 C 29.671875 -43.140625 27.144531 -42.304688 25.0625 -40.640625 C 22.976562 -38.984375 21.546875 -36.566406 20.765625 -33.390625 L 44.71875 -33.390625 C 44.15625 -36.285156 42.847656 -38.632812 40.796875 -40.4375 C 38.753906 -42.238281 36.035156 -43.140625 32.640625 -43.140625 Z M 32.640625 -43.140625 "/></g></g></g><g clip-path="url(#4fe7008a81)"><path stroke-linecap="butt" transform="matrix(2.181661, 0, 0, 2.181661, 452.608607, 33.71511)" fill="none" stroke-linejoin="miter" d="M 24.290188 36.740807 L 29.153169 36.740807 L 27.835366 43.489177 L 23.033262 43.489177 L 21.763802 49.999412 L 14.043194 49.999412 L 15.251777 43.489177 L -0.533215 43.489177 L 0.580472 37.618149 L 20.838117 15.996148 L 28.275827 15.996148 Z M 18.406626 27.607499 L 9.916106 36.740807 L 16.616133 36.740807 Z M 50.619397 49.999412 L 29.437858 49.999412 L 35.948092 15.996148 L 44.452937 15.996148 L 39.446717 42.327147 L 52.125202 42.327147 Z M 68.157282 24.108874 C 70.585191 24.108874 72.735574 24.635279 74.610221 25.686299 C 76.49203 26.737319 77.949491 28.173295 78.986187 29.992436 C 80.021093 31.802625 80.540336 33.790073 80.540336 35.956571 C 80.540336 37.285117 80.361286 38.550996 80.006769 39.752417 L 61.206586 39.752417 C 61.405331 41.302984 61.955012 42.491872 62.85563 43.322661 C 63.765201 44.144498 64.963041 44.556311 66.449151 44.556311 C 67.587905 44.556311 68.592372 44.314595 69.462552 43.832952 C 70.339894 43.342357 70.971938 42.740751 71.360475 42.029925 L 79.329962 42.029925 C 78.293266 44.497225 76.60125 46.549131 74.253913 48.185642 C 71.904785 49.814991 69.109825 50.627875 65.869031 50.627875 C 63.503789 50.627875 61.373102 50.126537 59.475178 49.12207 C 57.586208 48.117603 56.100098 46.719228 55.016849 44.923363 C 53.933601 43.129288 53.391081 41.097078 53.391081 38.826732 C 53.391081 36.266326 54.019544 33.861693 55.276471 31.616414 C 56.54235 29.362183 58.297034 27.548413 60.542313 26.173313 C 62.796544 24.796424 65.335464 24.108874 68.157282 24.108874 Z M 67.86006 30.228781 C 66.438408 30.228781 65.215501 30.635224 64.19671 31.449898 C 63.176129 32.257411 62.404426 33.340659 61.883392 34.699644 L 72.961176 34.699644 C 72.86628 33.371098 72.379266 32.296802 71.501924 31.474965 C 70.631744 30.644176 69.417789 30.228781 67.86006 30.228781 Z M 92.497252 50.627875 C 90.259135 50.627875 88.275268 50.273357 86.543861 49.560741 C 84.810663 48.849915 83.45884 47.829334 82.486602 46.500787 C 81.514364 45.172241 81.02735 43.634207 81.02735 41.886685 L 88.606509 41.886685 C 88.638738 42.631531 89.002209 43.270737 89.698711 43.809676 C 90.393422 44.337871 91.306574 44.602864 92.438166 44.602864 C 93.544691 44.602864 94.379061 44.425605 94.939485 44.069297 C 95.508862 43.714779 95.793551 43.195536 95.793551 42.516939 C 95.793551 41.899219 95.462309 41.421157 94.798036 41.080963 C 94.133763 40.740769 93.041562 40.330746 91.525014 39.847313 C 89.84016 39.32628 88.459689 38.815989 87.385393 38.318232 C 86.318259 37.811522 85.388992 37.084582 84.597594 36.13562 C 83.807987 35.177706 83.412287 33.920779 83.412287 32.36305 C 83.412287 29.842035 84.388106 27.836682 86.341535 26.350572 C 88.302126 24.85551 90.855369 24.108874 94.003057 24.108874 C 95.940371 24.108874 97.727284 24.465183 99.363795 25.176009 C 101.000306 25.888625 102.289462 26.884139 103.231261 28.164342 C 104.17127 29.446336 104.64217 30.91275 104.64217 32.565376 L 97.111354 32.565376 C 97.111354 31.845597 96.826666 31.252944 96.257289 30.785625 C 95.687912 30.320097 94.935904 30.087332 94.003057 30.087332 C 92.121248 30.087332 91.181239 30.651338 91.181239 31.78293 C 91.181239 32.368421 91.505319 32.830369 92.153477 33.170562 C 92.801636 33.510756 93.86877 33.920779 95.35488 34.404213 C 97.007505 34.893017 98.384395 35.392565 99.481968 35.897484 C 100.590283 36.397032 101.546407 37.140087 102.352129 38.128439 C 103.159641 39.107839 103.562503 40.377299 103.562503 41.935029 C 103.562503 44.654788 102.550874 46.785476 100.525825 48.327091 C 98.502568 49.861544 95.82578 50.627875 92.497252 50.627875 Z M 117.270522 50.627875 C 115.034195 50.627875 113.048538 50.273357 111.31713 49.560741 C 109.585723 48.849915 108.2339 47.829334 107.261662 46.500787 C 106.289424 45.172241 105.80241 43.634207 105.80241 41.886685 L 113.381569 41.886685 C 113.412008 42.631531 113.777269 43.270737 114.47198 43.809676 C 115.168482 44.337871 116.081634 44.602864 117.211435 44.602864 C 118.319751 44.602864 119.15233 44.425605 119.714545 44.069297 C 120.283922 43.714779 120.568611 43.195536 120.568611 42.516939 C 120.568611 41.899219 120.235579 41.421157 119.571306 41.080963 C 118.908823 40.740769 117.816622 40.330746 116.298284 39.847313 C 114.61522 39.32628 113.234749 38.815989 112.158662 38.318232 C 111.091528 37.811522 110.162262 37.084582 109.372654 36.13562 C 108.581256 35.177706 108.185557 33.920779 108.185557 32.36305 C 108.185557 29.842035 109.163167 27.836682 111.116595 26.350572 C 113.077186 24.85551 115.630429 24.108874 118.778117 24.108874 C 120.715431 24.108874 122.502344 24.465183 124.138855 25.176009 C 125.775366 25.888625 127.064522 26.884139 128.004531 28.164342 C 128.94633 29.446336 129.41544 30.91275 129.41544 32.565376 L 121.884624 32.565376 C 121.884624 31.845597 121.599935 31.252944 121.030558 30.785625 C 120.461181 30.320097 119.710964 30.087332 118.778117 30.087332 C 116.896308 30.087332 115.954509 30.651338 115.954509 31.78293 C 115.954509 32.368421 116.278588 32.830369 116.926747 33.170562 C 117.574906 33.510756 118.64383 33.920779 120.12994 34.404213 C 121.782566 34.893017 123.157665 35.392565 124.257028 35.897484 C 125.363553 36.397032 126.321467 37.140087 127.127189 38.128439 C 127.932911 39.107839 128.337563 40.377299 128.337563 41.935029 C 128.337563 44.654788 127.324143 46.785476 125.300885 48.327091 C 123.275837 49.861544 120.60084 50.627875 117.270522 50.627875 Z M 117.270522 50.627875 " stroke="#ffffff" stroke-width="4.85886" stroke-opacity="1" stroke-miterlimit="4"/></g><g fill="#21528c" fill-opacity="1"><g transform="translate(452.608607, 142.798158)"><g><path d="M 53 -28.9375 L 63.59375 -28.9375 L 60.734375 -14.203125 L 50.234375 -14.203125 L 47.484375 0 L 30.625 0 L 33.28125 -14.203125 L -1.171875 -14.203125 L 1.265625 -27.03125 L 45.46875 -74.1875 L 61.6875 -74.1875 Z M 40.171875 -48.859375 L 21.625 -28.9375 L 36.25 -28.9375 Z M 40.171875 -48.859375 "/></g></g></g><g fill="#21528c" fill-opacity="1"><g transform="translate(513.44069, 142.798158)"><g><path d="M 49.59375 0 L 3.390625 0 L 17.59375 -74.1875 L 36.140625 -74.1875 L 25.21875 -16.75 L 52.890625 -16.75 Z M 49.59375 0 "/></g></g></g><g fill="#21528c" fill-opacity="1"><g transform="translate(566.218213, 142.798158)"><g><path d="M 35.078125 -56.484375 C 40.378906 -56.484375 45.078125 -55.332031 49.171875 -53.03125 C 53.273438 -50.738281 56.457031 -47.613281 58.71875 -43.65625 C 60.976562 -39.707031 62.109375 -35.363281 62.109375 -30.625 C 62.109375 -27.726562 61.71875 -24.972656 60.9375 -22.359375 L 19.921875 -22.359375 C 20.347656 -18.972656 21.550781 -16.378906 23.53125 -14.578125 C 25.507812 -12.773438 28.125 -11.875 31.375 -11.875 C 33.84375 -11.875 36.03125 -12.398438 37.9375 -13.453125 C 39.84375 -14.515625 41.222656 -15.820312 42.078125 -17.375 L 59.453125 -17.375 C 57.191406 -12.007812 53.5 -7.539062 48.375 -3.96875 C 43.257812 -0.40625 37.164062 1.375 30.09375 1.375 C 24.9375 1.375 20.289062 0.28125 16.15625 -1.90625 C 12.03125 -4.09375 8.78125 -7.144531 6.40625 -11.0625 C 4.039062 -14.988281 2.859375 -19.425781 2.859375 -24.375 C 2.859375 -29.957031 4.234375 -35.203125 6.984375 -40.109375 C 9.742188 -45.023438 13.578125 -48.984375 18.484375 -51.984375 C 23.398438 -54.984375 28.929688 -56.484375 35.078125 -56.484375 Z M 34.4375 -43.140625 C 31.332031 -43.140625 28.664062 -42.253906 26.4375 -40.484375 C 24.21875 -38.722656 22.539062 -36.359375 21.40625 -33.390625 L 45.578125 -33.390625 C 45.359375 -36.285156 44.296875 -38.632812 42.390625 -40.4375 C 40.484375 -42.238281 37.832031 -43.140625 34.4375 -43.140625 Z M 34.4375 -43.140625 "/></g></g></g><g fill="#21528c" fill-opacity="1"><g transform="translate(627.262258, 142.798158)"><g><path d="M 27.125 1.375 C 22.25 1.375 17.921875 0.597656 14.140625 -0.953125 C 10.367188 -2.503906 7.421875 -4.726562 5.296875 -7.625 C 3.179688 -10.519531 2.125 -13.878906 2.125 -17.703125 L 18.65625 -17.703125 C 18.726562 -16.078125 19.519531 -14.679688 21.03125 -13.515625 C 22.550781 -12.347656 24.550781 -11.765625 27.03125 -11.765625 C 29.425781 -11.765625 31.242188 -12.148438 32.484375 -12.921875 C 33.722656 -13.703125 34.34375 -14.835938 34.34375 -16.328125 C 34.34375 -17.660156 33.617188 -18.695312 32.171875 -19.4375 C 30.722656 -20.1875 28.335938 -21.09375 25.015625 -22.15625 C 21.335938 -23.28125 18.332031 -24.390625 16 -25.484375 C 13.664062 -26.578125 11.632812 -28.164062 9.90625 -30.25 C 8.175781 -32.34375 7.3125 -35.082031 7.3125 -38.46875 C 7.3125 -43.976562 9.445312 -48.359375 13.71875 -51.609375 C 18 -54.859375 23.566406 -56.484375 30.421875 -56.484375 C 34.660156 -56.484375 38.5625 -55.707031 42.125 -54.15625 C 45.695312 -52.601562 48.503906 -50.429688 50.546875 -47.640625 C 52.597656 -44.847656 53.625 -41.648438 53.625 -38.046875 L 37.203125 -38.046875 C 37.203125 -39.597656 36.582031 -40.882812 35.34375 -41.90625 C 34.101562 -42.9375 32.460938 -43.453125 30.421875 -43.453125 C 26.316406 -43.453125 24.265625 -42.21875 24.265625 -39.75 C 24.265625 -38.476562 24.972656 -37.46875 26.390625 -36.71875 C 27.804688 -35.976562 30.140625 -35.078125 33.390625 -34.015625 C 36.992188 -32.960938 39.992188 -31.882812 42.390625 -30.78125 C 44.796875 -29.6875 46.878906 -28.0625 48.640625 -25.90625 C 50.410156 -23.757812 51.296875 -20.988281 51.296875 -17.59375 C 51.296875 -11.65625 49.085938 -7.007812 44.671875 -3.65625 C 40.253906 -0.300781 34.40625 1.375 27.125 1.375 Z M 27.125 1.375 "/></g></g></g><g fill="#21528c" fill-opacity="1"><g transform="translate(681.311564, 142.798158)"><g><path d="M 27.125 1.375 C 22.25 1.375 17.921875 0.597656 14.140625 -0.953125 C 10.367188 -2.503906 7.421875 -4.726562 5.296875 -7.625 C 3.179688 -10.519531 2.125 -13.878906 2.125 -17.703125 L 18.65625 -17.703125 C 18.726562 -16.078125 19.519531 -14.679688 21.03125 -13.515625 C 22.550781 -12.347656 24.550781 -11.765625 27.03125 -11.765625 C 29.425781 -11.765625 31.242188 -12.148438 32.484375 -12.921875 C 33.722656 -13.703125 34.34375 -14.835938 34.34375 -16.328125 C 34.34375 -17.660156 33.617188 -18.695312 32.171875 -19.4375 C 30.722656 -20.1875 28.335938 -21.09375 25.015625 -22.15625 C 21.335938 -23.28125 18.332031 -24.390625 16 -25.484375 C 13.664062 -26.578125 11.632812 -28.164062 9.90625 -30.25 C 8.175781 -32.34375 7.3125 -35.082031 7.3125 -38.46875 C 7.3125 -43.976562 9.445312 -48.359375 13.71875 -51.609375 C 18 -54.859375 23.566406 -56.484375 30.421875 -56.484375 C 34.660156 -56.484375 38.5625 -55.707031 42.125 -54.15625 C 45.695312 -52.601562 48.503906 -50.429688 50.546875 -47.640625 C 52.597656 -44.847656 53.625 -41.648438 53.625 -38.046875 L 37.203125 -38.046875 C 37.203125 -39.597656 36.582031 -40.882812 35.34375 -41.90625 C 34.101562 -42.9375 32.460938 -43.453125 30.421875 -43.453125 C 26.316406 -43.453125 24.265625 -42.21875 24.265625 -39.75 C 24.265625 -38.476562 24.972656 -37.46875 26.390625 -36.71875 C 27.804688 -35.976562 30.140625 -35.078125 33.390625 -34.015625 C 36.992188 -32.960938 39.992188 -31.882812 42.390625 -30.78125 C 44.796875 -29.6875 46.878906 -28.0625 48.640625 -25.90625 C 50.410156 -23.757812 51.296875 -20.988281 51.296875 -17.59375 C 51.296875 -11.65625 49.085938 -7.007812 44.671875 -3.65625 C 40.253906 -0.300781 34.40625 1.375 27.125 1.375 Z M 27.125 1.375 "/></g></g></g></svg>